<?xml version="1.0" encoding="UTF-8"?>
<svg xmlns="http://www.w3.org/2000/svg" xmlns:xlink="http://www.w3.org/1999/xlink" width="0" height="0">

<symbol id="DaVinci" width="265" height="130" viewBox="0 0 265 130" fill="none">
<path d="M41.4405 28.7529C35.0531 28.7529 30.5352 31.2 27.8867 34.7176C25.5498 37.9294 30.0678 41.4471 32.872 38.5412L33.0278 38.3882C34.7415 36.5529 37.3899 35.1765 41.2847 35.1765C64.0301 35.1765 63.2512 80.4471 44.0889 80.4471C42.9984 80.4471 42.2195 80.4471 41.4405 80.2941C46.8932 73.4118 44.8679 61.4823 43.31 52.6118C42.2195 46.4941 42.3752 44.2 42.3752 44.2C42.3752 42.9765 42.6868 42.2118 43.31 41.9059C44.0889 41.4471 44.5563 40.6823 44.5563 39.7647C44.5563 38.3882 43.4658 37.3176 42.0637 37.3176C41.9079 37.3176 41.7521 37.3176 41.5963 37.3176C35.9878 38.0823 33.9625 42.3647 33.3394 48.0235C33.3394 48.0235 33.0278 51.0823 33.0278 52.7647V54.6C33.1836 63.6235 34.5857 73.5647 31.6257 78.1529C31.3141 78.6118 30.8467 78.9176 30.2236 78.9176C29.6004 78.9176 28.9772 78.9176 28.1983 78.9176C20.7203 78.9176 20.253 86.1059 26.3288 86.1059C29.4446 86.1059 32.0931 85.6471 34.2741 85.0353C34.5857 84.8824 34.8973 84.8824 35.2089 85.0353C37.8573 85.8 41.1289 86.5647 46.27 86.5647C79.9208 86.5647 78.3629 28.7529 41.4405 28.7529Z" fill="#C40E91"/>
<path d="M143.951 28.753C142.704 28.1412 141.146 29.0588 141.925 30.4353C148.624 41.9059 139.9 72.0353 134.292 76.3177C133.824 76.7765 133.045 76.7765 132.578 76.3177C126.969 72.0353 118.089 41.9059 124.944 30.4353C125.723 29.0588 124.165 28.2941 122.919 28.753C101.264 38.0824 117.778 86.4118 133.513 86.4118C149.092 86.4118 165.605 38.0824 143.951 28.753Z" fill="#0A169A"/>
<path d="M22.5896 95.2824C23.9917 94.9765 26.1728 94.8235 27.7307 94.8235C30.2234 94.8235 31.4697 95.5882 31.4697 98.1882V105.529H29.756L29.6002 103.847C28.8212 104.612 27.2633 105.682 25.3939 105.682C23.5244 105.682 22.1223 104.612 22.1223 102.776V101.706C22.1223 100.024 23.2128 99.1059 25.0823 99.1059H29.2886V98.3412C29.2886 97.1177 28.8212 96.6588 27.2633 96.6588C26.1728 96.6588 24.4591 96.8118 22.7454 96.9647L22.5896 95.2824ZM24.1475 102.471C24.1475 103.541 24.6149 103.847 25.7054 103.847C26.6402 103.847 28.0423 103.388 29.2886 102.471V100.635H25.3939C24.4591 100.635 24.1475 101.094 24.1475 102.012V102.471Z" fill="#C40E91"/>
<path d="M43.6214 105.529H41.5961V96.8117H39.415C38.4803 96.8117 38.3245 97.1176 38.1687 98.0353C37.8571 99.8706 37.7013 101.859 37.234 103.235C36.7666 104.918 35.5203 105.682 33.8065 105.529L33.6508 104C34.7413 103.694 35.2087 103.388 35.5202 102.624C35.9876 101.4 36.2992 99.1059 36.455 97.5765C36.6108 95.8941 37.5455 95.1294 39.2592 95.1294H43.933V105.529H43.6214Z" fill="#C40E91"/>
<path d="M51.0993 98.9529C54.3709 98.9529 55.4615 99.7176 55.4615 102.318C55.4615 104.918 54.3709 105.529 51.4109 105.529C49.2298 105.529 48.1393 105.529 46.7372 105.376V94.9765H48.7625V98.9529H51.0993ZM51.0993 104C52.813 104 53.2804 103.694 53.2804 102.318C53.2804 101.094 52.813 100.635 51.0993 100.635H48.7625V104H51.0993Z" fill="#C40E91"/>
<path d="M61.3815 96.8117V105.529H59.3562V96.8117H55.6172V95.1294H65.2763V96.8117H61.3815Z" fill="#C40E91"/>
<path d="M68.8594 101.247C69.0152 103.541 69.95 104 71.9753 104C73.0658 104 74.4679 103.847 75.7142 103.694L75.87 105.071C74.7795 105.529 72.91 105.682 71.6637 105.682C67.9247 105.682 66.5226 104.153 66.5226 100.176C66.5226 96.0471 68.0805 94.6706 71.5079 94.6706C74.7795 94.6706 76.1816 95.8941 76.1816 98.1882C76.1816 100.024 75.4027 101.094 73.5332 101.094H68.8594V101.247ZM73.0658 99.7177C74.0006 99.7177 74.1563 98.953 74.1563 98.3412C74.1563 97.1177 73.5332 96.6588 71.8195 96.6588C69.7942 96.6588 69.0152 97.2706 69.0152 99.7177H73.0658Z" fill="#C40E91"/>
<path d="M80.6996 96.6588C81.7901 95.5883 83.5038 94.8235 85.0617 94.8235C87.7101 94.8235 88.6449 96.8118 88.6449 100.329C88.6449 104.306 87.2428 105.682 84.5943 105.682C83.348 105.682 81.9459 105.376 80.8554 104.612C80.8554 105.376 81.0112 105.988 80.8554 106.753V109.659H78.8301V95.1294H80.5438L80.6996 96.6588ZM81.0112 103.388C82.2575 103.694 83.1922 104 84.2828 104C85.9965 104 86.7754 103.388 86.7754 100.329C86.7754 97.5765 86.1522 96.6588 84.5943 96.6588C83.5038 96.6588 82.5691 97.1177 81.1669 98.1882V103.388H81.0112Z" fill="#C40E91"/>
<path d="M100.952 105.529H98.9271V100.788H93.786V105.529H91.7607V95.1294H93.786V99.2588H98.9271V95.1294H100.952V105.529Z" fill="#C40E91"/>
<path d="M104.068 95.2824C105.47 94.9765 107.651 94.8235 109.209 94.8235C111.702 94.8235 112.948 95.5882 112.948 98.1882V105.529H111.235L111.079 103.847C110.3 104.612 108.742 105.682 106.872 105.682C105.003 105.682 103.601 104.612 103.601 102.776V101.706C103.601 100.024 104.691 99.1059 106.561 99.1059H110.767V98.3412C110.767 97.1177 110.3 96.6588 108.742 96.6588C107.651 96.6588 105.938 96.8118 104.224 96.9647L104.068 95.2824ZM105.626 102.471C105.626 103.541 106.093 103.847 107.184 103.847C108.119 103.847 109.521 103.388 110.767 102.471V100.635H106.872C105.938 100.635 105.626 101.094 105.626 102.012V102.471Z" fill="#C40E91"/>
<path d="M120.894 96.8117V105.529H118.868V96.8117H115.129V95.1294H124.633V96.8117H120.894Z" fill="#C40E91"/>
<path d="M134.292 105.529V98.9529C134.292 98.4941 134.292 98.0353 134.292 97.5765C134.136 98.0353 133.824 98.4941 133.513 98.8L128.372 105.529H126.658V95.1294H128.527V101.706C128.527 102.165 128.527 102.624 128.527 103.082C128.683 102.624 128.995 102.165 129.306 101.859L134.447 95.1294H136.161V105.529H134.292Z" fill="#C40E91"/>
<path d="M145.976 100.176C148.001 100.329 148.624 101.247 148.624 102.929C148.624 105.071 147.378 105.682 144.418 105.682C142.081 105.682 140.991 105.682 139.433 105.529V95.1294C140.835 94.9765 141.925 94.9765 143.795 94.9765C147.066 94.9765 148.313 95.5882 148.313 97.7294C148.313 99.2588 147.534 100.024 145.976 100.176ZM143.951 99.4118C145.664 99.4118 146.287 99.1059 146.287 98.0353C146.287 96.9647 145.664 96.6588 143.639 96.6588C142.704 96.6588 141.925 96.6588 141.302 96.6588V99.4118H143.951ZM144.106 104C145.976 104 146.599 103.694 146.599 102.471C146.599 101.247 145.976 100.788 143.951 100.788H141.302V103.847L144.106 104Z" fill="#C40E91"/>
<path d="M160.776 105.529H158.751V100.788H153.61V105.529H151.584V95.1294H153.61V99.2588H158.751V95.1294H160.776V105.529Z" fill="#C40E91"/>
<path d="M163.892 95.2824C165.294 94.9765 167.475 94.8235 169.033 94.8235C171.526 94.8235 172.772 95.5882 172.772 98.1882V105.529H171.058L170.902 103.847C170.123 104.612 168.566 105.682 166.696 105.682C164.827 105.682 163.424 104.612 163.424 102.776V101.706C163.424 100.024 164.515 99.1059 166.384 99.1059H170.591V98.3412C170.591 97.1177 170.123 96.6588 168.566 96.6588C167.475 96.6588 165.761 96.8118 164.048 96.9647L163.892 95.2824ZM165.45 102.471C165.45 103.541 165.917 103.847 167.008 103.847C167.942 103.847 169.344 103.388 170.591 102.471V100.635H166.696C165.761 100.635 165.45 101.094 165.45 102.012V102.471Z" fill="#C40E91"/>
<path d="M194.894 105.529H180.717V95.1294H182.742V103.847H186.949V95.1294H188.818V103.847H193.025V95.1294H195.05V105.529H194.894Z" fill="#C40E91"/>
<path d="M203.307 100.176C205.644 100.482 206.267 101.859 207.513 105.529H205.332C204.086 102.165 203.618 100.941 201.593 100.941H200.191C200.191 101.247 200.347 101.553 200.347 101.859V105.529H198.322V95.1294H200.347V98.1882C200.347 98.647 200.347 98.9529 200.191 99.4118H201.437C203.463 99.4118 204.086 98.0353 205.021 95.2823H207.202C205.955 98.3412 205.488 99.7176 203.307 100.176Z" fill="#C40E91"/>
<path d="M219.353 100.329C219.353 104.306 217.951 105.835 214.368 105.835C210.785 105.835 209.383 104.306 209.383 100.329C209.383 96.353 210.785 94.8235 214.368 94.8235C217.951 94.8235 219.353 96.353 219.353 100.329ZM211.408 100.329C211.408 103.235 212.031 104 214.212 104C216.393 104 217.016 103.082 217.016 100.329C217.016 97.4235 216.393 96.6588 214.212 96.6588C212.031 96.5059 211.408 97.4235 211.408 100.329Z" fill="#C40E91"/>
<path d="M230.882 105.529H228.857V96.8117H226.675C225.741 96.8117 225.585 97.1176 225.429 98.0353C225.118 99.8706 224.962 101.859 224.494 103.235C224.027 104.918 222.781 105.682 221.067 105.529L220.911 104C222.002 103.694 222.469 103.388 222.781 102.624C223.248 101.4 223.56 99.1059 223.715 97.5765C223.871 95.8941 224.806 95.1294 226.52 95.1294H231.193V105.529H230.882Z" fill="#C40E91"/>
<path d="M233.998 95.2824C235.4 94.9765 237.581 94.8235 239.139 94.8235C241.631 94.8235 242.878 95.5882 242.878 98.1882V105.529H241.164L241.008 103.847C240.229 104.612 238.671 105.682 236.802 105.682C234.932 105.682 233.53 104.612 233.53 102.776V101.706C233.53 100.024 234.621 99.1059 236.49 99.1059H240.697V98.3412C240.697 97.1177 240.229 96.6588 238.671 96.6588C237.581 96.6588 235.867 96.8118 234.153 96.9647L233.998 95.2824ZM235.711 102.471C235.711 103.541 236.179 103.847 237.269 103.847C238.204 103.847 239.606 103.388 240.852 102.471V100.635H236.958C236.023 100.635 235.711 101.094 235.711 102.012V102.471Z" fill="#C40E91"/>
<path d="M169.812 38.6941C169.812 46.3412 176.199 52.7647 184.145 52.7647C192.09 52.7647 198.477 46.4941 198.477 38.6941C198.477 30.8941 192.09 24.6235 184.145 24.6235C183.989 24.6235 183.677 24.6235 183.521 24.6235C181.34 22.6353 171.526 14.6823 166.384 36.4C166.384 36.4 169.812 27.2235 177.29 26.3059C172.928 28.7529 169.812 33.3412 169.812 38.6941ZM171.058 38.6941C171.058 38.0823 171.058 37.6235 171.214 37.0117C178.692 35.6353 183.677 32.8823 186.326 31.047C189.753 34.8706 195.362 36.8588 197.231 37.4706C197.231 37.9294 197.231 38.2353 197.231 38.6941C197.231 45.7294 191.311 51.5412 184.145 51.5412C176.822 51.5412 171.058 45.7294 171.058 38.6941Z" fill="#C40E91"/>
<path d="M184.145 50.0118C181.185 50.0118 178.848 47.7176 178.848 44.8118H189.442C189.442 47.7176 187.105 50.0118 184.145 50.0118Z" fill="#C40E91"/>
<path d="M179.315 36.0941C180.561 36.0941 181.496 37.0118 181.496 38.2353C181.496 39.4588 180.561 40.3765 179.315 40.3765C178.069 40.3765 177.134 39.4588 177.134 38.2353C177.134 37.1647 178.069 36.0941 179.315 36.0941Z" fill="#C40E91"/>
<path d="M186.793 38.2353C186.793 37.0118 187.728 36.0941 188.974 36.0941C190.22 36.0941 191.155 37.0118 191.155 38.2353C191.155 39.4588 190.22 40.3765 188.974 40.3765C187.728 40.3765 186.793 39.4588 186.793 38.2353Z" fill="#C40E91"/>
<path d="M211.564 24.6235C210.473 24.6235 209.538 24.7765 208.448 24.9294C208.915 22.7882 207.981 20.3412 207.981 20.3412C208.448 22.1765 207.981 24.1647 207.513 25.2353C207.357 25.2353 207.202 25.3882 207.046 25.3882C206.423 23.4 203.307 20.953 203.307 20.953C204.865 23.2471 205.332 25.0824 205.644 25.8471C205.644 25.8471 205.488 25.8471 205.488 26C203.93 24.0118 200.97 24.6235 200.97 24.6235C202.839 25.3882 203.618 26.3059 203.93 26.9177C199.879 29.3647 197.231 33.8 197.231 38.8471C197.231 46.4941 203.618 52.9177 211.564 52.9177C219.509 52.9177 225.896 46.6471 225.896 38.8471C225.896 31.0471 219.353 24.6235 211.564 24.6235ZM211.564 51.5412C204.397 51.5412 198.477 45.7294 198.477 38.6941C198.477 38.2353 198.477 37.7765 198.633 37.1647C200.347 35.9412 204.709 32.5765 208.76 28.753C211.408 30.2824 217.795 33.6471 224.339 35.1765C224.65 36.2471 224.806 37.4706 224.806 38.5412C224.65 45.7294 218.73 51.5412 211.564 51.5412Z" fill="#0A169A"/>
<path d="M211.564 50.0118C214.524 50.0118 216.861 47.7177 216.861 44.8118H206.267C206.267 47.7177 208.604 50.0118 211.564 50.0118Z" fill="#0A169A"/>
<path d="M216.393 36.0941C215.147 36.0941 214.212 37.0118 214.212 38.2353C214.212 39.4588 215.147 40.3765 216.393 40.3765C217.64 40.3765 218.574 39.4588 218.574 38.2353C218.574 37.1647 217.64 36.0941 216.393 36.0941Z" fill="#0A169A"/>
<path d="M208.76 38.2353C208.76 37.0118 207.825 36.0941 206.579 36.0941C205.332 36.0941 204.397 37.0118 204.397 38.2353C204.397 39.4588 205.332 40.3765 206.579 40.3765C207.825 40.3765 208.76 39.4588 208.76 38.2353Z" fill="#0A169A"/>
<path d="M94.8765 78C95.1881 79.0706 95.6555 79.0706 96.1228 79.0706C97.9923 79.0706 100.952 75.2471 102.354 72.953L102.822 72.0353C103.601 70.8118 105.938 71.8824 102.822 76.4706L102.51 76.9294C100.018 80.4471 96.4344 85.3412 92.2281 85.3412C90.9817 85.3412 90.047 84.8824 89.1123 84.1177C87.087 85.4941 84.5943 86.4118 81.9459 86.4118C63.0952 86.4118 69.3268 54.1412 89.268 54.1412C94.5649 54.1412 96.746 57.3529 96.5902 60.2588C96.5902 61.1765 95.8112 62.0941 94.7207 62.0941C93.786 62.0941 92.8512 61.3294 92.8512 60.2588C92.8512 59.4941 92.0723 58.4235 90.3586 58.4235C81.1669 58.4235 76.649 78 84.127 78C84.7501 78 86.1522 77.8471 86.9312 77.2353C86.9312 77.2353 91.7607 66.5294 94.5649 67.4471C97.3692 68.3647 94.7207 77.3883 94.8765 78Z" fill="#C40E91"/>
<path d="M162.49 59.6471C166.073 59.6471 168.566 57.2 168.566 54.1412C168.566 51.0824 166.073 48.6353 162.49 48.6353C159.062 48.6353 156.57 50.9294 156.57 54.1412C156.414 57.2 158.907 59.6471 162.49 59.6471Z" fill="#0A169A"/>
<path d="M232.595 59.6471C236.179 59.6471 238.671 57.2 238.671 54.1412C238.671 51.0824 236.179 48.6353 232.595 48.6353C229.168 48.6353 226.675 50.9294 226.675 54.1412C226.675 57.2 229.168 59.6471 232.595 59.6471Z" fill="#C40E91"/>
<path d="M241.476 72.1882L241.008 72.9529C239.45 75.5529 235.867 81.5176 234.153 81.5176C232.751 81.5176 231.972 79.6823 231.817 77.2353C231.817 76.4706 231.817 75.7059 231.817 74.7882C231.817 72.1882 232.128 67.9059 232.907 63.7765C233.219 62.7059 232.284 61.6353 231.193 61.6353C226.987 61.6353 224.027 66.6823 223.248 72.1882L223.092 72.4941C219.197 78.7647 214.68 80.7529 211.096 80.7529C202.995 80.7529 206.578 63.4706 214.212 63.4706C215.614 63.4706 216.393 64.6941 216.393 65.6118C216.393 66.6823 217.328 67.447 218.263 67.447C219.353 67.447 220.132 66.6823 220.132 65.6118C220.288 62.4 217.951 59.0353 213.277 59.0353C204.865 59.0353 199.412 65.3059 198.01 71.8823L197.698 72.4941C196.452 74.3294 192.09 80.6 192.09 78.4588C192.09 76.1647 195.05 72.0353 195.05 65.3059C195.05 60.8706 191.311 59.3412 188.351 59.3412C185.079 59.3412 181.808 61.1765 178.848 63.9294V63.6235C178.848 63.6235 178.38 61.0235 179.471 57.6588C179.782 56.7412 179.315 55.8235 178.38 55.5176C175.576 54.6 171.058 56.2823 171.058 63.6235C171.058 66.5294 171.214 69.5882 171.37 72.3412L171.058 72.8C169.5 75.4 165.917 81.3647 164.203 81.3647C162.801 81.3647 162.022 79.5294 161.866 77.0823C161.866 76.3176 161.866 75.5529 161.866 74.6353C161.866 72.0353 162.178 67.6 162.957 63.6235C163.269 62.5529 162.334 61.4823 161.243 61.4823C151.896 61.4823 149.092 86.2588 161.088 86.2588C165.45 86.2588 168.721 80.2941 171.058 76.7765C171.058 76.9294 171.058 76.9294 171.058 77.0823C171.058 77.847 170.902 78.6117 170.902 79.2235C170.902 81.5176 171.214 84.8823 173.862 85.9529C175.732 86.7176 177.757 85.8 178.848 84.1176C179.627 83.047 179.782 81.6706 179.782 80.2941C179.782 77.0823 179.938 73.1059 179.627 70.3529C181.185 68.3647 183.21 66.9882 184.924 66.9882C188.039 66.9882 183.521 73.8706 183.521 81.6706C183.521 84.8823 184.924 86.1059 187.416 86.1059C192.401 86.1059 195.985 79.2235 197.698 76.4706C198.01 81.6706 201.126 86.1059 207.357 86.1059C217.016 86.1059 221.534 79.0706 223.248 76.3176C223.56 81.5176 226.052 86.1059 231.193 86.1059C235.556 86.1059 238.983 79.8353 241.32 76.4706L241.631 76.0118C244.28 72.1882 242.099 70.9647 241.476 72.1882Z" fill="#0A169A"/>
</symbol>

<symbol id="location" width="24" height="24" viewBox="0 0 24 24">
  <g>
    <path d="M12,2A7.008,7.008,0,0,0,5,9c0,5.353,6.036,11.45,6.293,11.707l.707.707.707-.707C12.964,20.45,19,14.353,19,9A7.008,7.008,0,0,0,12,2Zm0,16.533C10.471,16.825,7,12.553,7,9A5,5,0,0,1,17,9C17,12.546,13.527,16.823,12,18.533Z"/>
    <path d="M12,6a3,3,0,1,0,3,3A3,3,0,0,0,12,6Zm0,4a1,1,0,1,1,1-1A1,1,0,0,1,12,10Z"/>
  </g>
</symbol>

<symbol id="clock" width="23.999" height="22.068" viewBox="0 0 23.999 22.068">
  <g>
    <polygon points="12 5.228 12 11.68 15.298 14.932 16.702 13.508 14 10.844 14 5.228 12 5.228"/>
    <path d="M12.964,0A11.047,11.047,0,0,0,1.979,10.034H0l4.1,4.908L8,10.034H6.007a7.028,7.028,0,1,1,2.115,6.1,6.892,6.892,0,0,1-.762-.846L4.172,17.707a10.72,10.72,0,0,0,1.205,1.34A11.035,11.035,0,1,0,12.964,0Z"/>
  </g>
</symbol>

<symbol id="phone" viewBox="0 0 24 24"><path d="M21.384,17.752a2.108,2.108,0,0,1-.522,3.359,7.543,7.543,0,0,1-5.476.642C10.5,20.523,3.477,13.5,2.247,8.614a7.543,7.543,0,0,1,.642-5.476,2.108,2.108,0,0,1,3.359-.522L8.333,4.7a2.094,2.094,0,0,1,.445,2.328A3.877,3.877,0,0,1,8,8.2c-2.384,2.384,5.417,10.185,7.8,7.8a3.877,3.877,0,0,1,1.173-.781,2.092,2.092,0,0,1,2.328.445Z"/>
</symbol>

<symbol id="mail" data-name="1-Mail" viewBox="0 0 32 32"><title>1-Mail</title><path d="M28,28H4a4,4,0,0,1-4-4V8A4,4,0,0,1,4,4H28a4,4,0,0,1,4,4V24A4,4,0,0,1,28,28ZM4,6A2,2,0,0,0,2,8V24a2,2,0,0,0,2,2H28a2,2,0,0,0,2-2V8a2,2,0,0,0-2-2Z"/><path d="M16,18a1,1,0,0,1-.618-.214l-14-11A1,1,0,1,1,2.618,5.214L16,15.728,29.382,5.214a1,1,0,1,1,1.236,1.572l-14,11A1,1,0,0,1,16,18Z"/><path d="M2,27a1,1,0,0,1-.707-1.707l11-11a1,1,0,0,1,1.414,1.414l-11,11A1,1,0,0,1,2,27Z"/><path d="M30,27a1,1,0,0,1-.707-.293l-11-11a1,1,0,0,1,1.414-1.414l11,11A1,1,0,0,1,30,27Z"/>
</symbol>
<symbol id="facebook" width="20" height="20" viewBox="0 0 20 20">
<g clip-path="url(#clip0_1599_99)">
<path d="M13.3308 3.32083H15.1567V0.140833C14.8417 0.0975 13.7583 0 12.4967 0C9.86416 0 8.06082 1.65583 8.06082 4.69917V7.5H5.15582V11.055H8.06082V20H11.6225V11.0558H14.41L14.8525 7.50083H11.6217V5.05167C11.6225 4.02417 11.8992 3.32083 13.3308 3.32083Z"/>
</g>
<defs>
<clipPath>
<rect width="20" height="20" fill="white"/>
</clipPath>
</defs>
</symbol>

<symbol id="modal__icon" width="11" height="11" viewBox="0 0 11 11">
<path d="M11 1.10786L9.89214 0L5.5 4.39214L1.10786 0L0 1.10786L4.39214 5.5L0 9.89214L1.10786 11L5.5 6.60786L9.89214 11L11 9.89214L6.60786 5.5L11 1.10786Z"/>
</symbol>

<symbol id="form-icon-name" width="12" height="12" viewBox="0 0 12 12">
<path d="M6 6C7.6575 6 9 4.6575 9 3C9 1.3425 7.6575 0 6 0C4.3425 0 3 1.3425 3 3C3 4.6575 4.3425 6 6 6ZM6 7.5C3.9975 7.5 0 8.505 0 10.5V11.25C0 11.6625 0.3375 12 0.75 12H11.25C11.6625 12 12 11.6625 12 11.25V10.5C12 8.505 8.0025 7.5 6 7.5Z"/>
</symbol>

<symbol id="form-icon-phone" width="14" height="14" viewBox="0 0 14 14">
<path d="M11.996 9.12261L10.1579 8.91275C9.71641 8.86209 9.2822 9.01406 8.97102 9.32524L7.63945 10.6568C5.59144 9.61472 3.91251 7.94301 2.87041 5.88775L4.20922 4.54894C4.5204 4.23775 4.67237 3.80355 4.62171 3.3621L4.41185 1.53842C4.325 0.807499 3.70988 0.2575 2.97173 0.2575H1.71976C0.902004 0.2575 0.221746 0.937761 0.272403 1.75552C0.655953 7.93577 5.59868 12.8713 11.7717 13.2548C12.5894 13.3055 13.2697 12.6252 13.2697 11.8075V10.5555C13.2769 9.82459 12.7269 9.20946 11.996 9.12261Z"/>
</symbol>

<symbol id="form-icon-mail" width="16" height="12" viewBox="0 0 16 12">
<path d="M14 0H2C1.175 0 0.5075 0.675 0.5075 1.5L0.5 10.5C0.5 11.325 1.175 12 2 12H14C14.825 12 15.5 11.325 15.5 10.5V1.5C15.5 0.675 14.825 0 14 0ZM13.7 3.1875L8.3975 6.5025C8.1575 6.6525 7.8425 6.6525 7.6025 6.5025L2.3 3.1875C2.1125 3.0675 2 2.865 2 2.6475C2 2.145 2.5475 1.845 2.975 2.1075L8 5.25L13.025 2.1075C13.4525 1.845 14 2.145 14 2.6475C14 2.865 13.8875 3.0675 13.7 3.1875Z"/>
</symbol>

</svg>
